<svg width="48" height="49" viewBox="0 0 48 49" fill="none" xmlns="http://www.w3.org/2000/svg">
<path d="M35.5058 28.5C36.0968 28.5 36.6819 28.6164 37.2279 28.8425C37.7739 29.0687 38.2699 29.4002 38.6878 29.818C39.1057 30.2359 39.4371 30.732 39.6633 31.2779C39.8894 31.8239 40.0058 32.4091 40.0058 33V34.808C40.0061 35.8891 39.7726 36.9575 39.3215 37.9399C38.8703 38.9224 38.212 39.7957 37.3918 40.5C34.2618 43.188 29.7798 44.5 23.9998 44.5C18.2198 44.5 13.7438 43.188 10.6198 40.5C9.80074 39.7962 9.14332 38.9238 8.69251 37.9424C8.24171 36.9611 8.00815 35.8939 8.00781 34.814V32.998C8.00834 31.8049 8.48268 30.6608 9.32654 29.8173C10.1704 28.9738 11.3147 28.5 12.5078 28.5H35.5058ZM23.9998 4.5C24.3623 4.50002 24.7125 4.63129 24.9857 4.86953C25.2589 5.10778 25.4365 5.43689 25.4858 5.796L25.4998 6L25.4978 7.498H32.4978C33.6913 7.498 34.8359 7.97211 35.6798 8.81602C36.5237 9.65993 36.9978 10.8045 36.9978 11.998V21.008C36.9978 22.2015 36.5237 23.3461 35.6798 24.19C34.8359 25.0339 33.6913 25.508 32.4978 25.508H15.4978C14.3043 25.508 13.1597 25.0339 12.3158 24.19C11.4719 23.3461 10.9978 22.2015 10.9978 21.008V12C10.9978 11.4089 11.1143 10.8236 11.3405 10.2775C11.5668 9.73137 11.8985 9.2352 12.3165 8.81731C12.7346 8.39942 13.2309 8.068 13.7771 7.84197C14.3233 7.61594 14.9087 7.49974 15.4998 7.5L22.4998 7.498V6C22.4999 5.63722 22.6314 5.28677 22.8701 5.01355C23.1088 4.74033 23.4383 4.56285 23.7978 4.514L23.9998 4.5ZM19.4978 13.5C19.1614 13.4865 18.8257 13.5412 18.5108 13.6606C18.196 13.7801 17.9086 13.9619 17.6658 14.1952C17.423 14.4285 17.2298 14.7085 17.0978 15.0182C16.9659 15.328 16.8978 15.6613 16.8978 15.998C16.8978 16.3347 16.9659 16.668 17.0978 16.9778C17.2298 17.2875 17.423 17.5675 17.6658 17.8008C17.9086 18.0341 18.196 18.2159 18.5108 18.3354C18.8257 18.4548 19.1614 18.5095 19.4978 18.496C20.143 18.4702 20.7532 18.1957 21.2006 17.7301C21.648 17.2644 21.8978 16.6437 21.8978 15.998C21.8978 15.3523 21.648 14.7316 21.2006 14.2659C20.7532 13.8003 20.143 13.5258 19.4978 13.5ZM28.4838 13.5C28.1474 13.4865 27.8117 13.5412 27.4968 13.6606C27.182 13.7801 26.8946 13.9619 26.6518 14.1952C26.409 14.4285 26.2158 14.7085 26.0838 15.0182C25.9519 15.328 25.8838 15.6613 25.8838 15.998C25.8838 16.3347 25.9519 16.668 26.0838 16.9778C26.2158 17.2875 26.409 17.5675 26.6518 17.8008C26.8946 18.0341 27.182 18.2159 27.4968 18.3354C27.8117 18.4548 28.1474 18.5095 28.4838 18.496C29.129 18.4702 29.7392 18.1957 30.1866 17.7301C30.634 17.2644 30.8838 16.6437 30.8838 15.998C30.8838 15.3523 30.634 14.7316 30.1866 14.2659C29.7392 13.8003 29.129 13.5258 28.4838 13.5Z" fill="#7A7A7A"/>
</svg>
